<svg width="320" height="320" viewBox="0 0 320 320" fill="none" xmlns="http://www.w3.org/2000/svg">
  <rect width="320" height="320" rx="24" fill="#ffffff"/>
  <rect x="20" y="20" width="280" height="280" rx="12" fill="#ffffff" stroke="#111827" stroke-width="8"/>
  <rect x="42" y="42" width="62" height="62" fill="#111827"/>
  <rect x="52" y="52" width="42" height="42" fill="#ffffff"/>
  <rect x="60" y="60" width="26" height="26" fill="#111827"/>
  <rect x="216" y="42" width="62" height="62" fill="#111827"/>
  <rect x="226" y="52" width="42" height="42" fill="#ffffff"/>
  <rect x="234" y="60" width="26" height="26" fill="#111827"/>
  <rect x="42" y="216" width="62" height="62" fill="#111827"/>
  <rect x="52" y="226" width="42" height="42" fill="#ffffff"/>
  <rect x="60" y="234" width="26" height="26" fill="#111827"/>
  <rect x="132" y="42" width="14" height="14" fill="#111827"/>
  <rect x="160" y="42" width="14" height="14" fill="#111827"/>
  <rect x="146" y="56" width="14" height="14" fill="#111827"/>
  <rect x="118" y="70" width="14" height="14" fill="#111827"/>
  <rect x="146" y="84" width="14" height="14" fill="#111827"/>
  <rect x="174" y="70" width="14" height="14" fill="#111827"/>
  <rect x="118" y="112" width="14" height="14" fill="#111827"/>
  <rect x="146" y="112" width="14" height="14" fill="#111827"/>
  <rect x="174" y="112" width="14" height="14" fill="#111827"/>
  <rect x="202" y="112" width="14" height="14" fill="#111827"/>
  <rect x="118" y="140" width="14" height="14" fill="#111827"/>
  <rect x="146" y="140" width="14" height="14" fill="#111827"/>
  <rect x="188" y="140" width="14" height="14" fill="#111827"/>
  <rect x="216" y="140" width="14" height="14" fill="#111827"/>
  <rect x="104" y="154" width="14" height="14" fill="#111827"/>
  <rect x="132" y="168" width="14" height="14" fill="#111827"/>
  <rect x="160" y="168" width="14" height="14" fill="#111827"/>
  <rect x="188" y="168" width="14" height="14" fill="#111827"/>
  <rect x="216" y="168" width="14" height="14" fill="#111827"/>
  <rect x="244" y="168" width="14" height="14" fill="#111827"/>
  <rect x="118" y="196" width="14" height="14" fill="#111827"/>
  <rect x="146" y="196" width="14" height="14" fill="#111827"/>
  <rect x="174" y="196" width="14" height="14" fill="#111827"/>
  <rect x="202" y="196" width="14" height="14" fill="#111827"/>
  <rect x="132" y="224" width="14" height="14" fill="#111827"/>
  <rect x="160" y="224" width="14" height="14" fill="#111827"/>
  <rect x="188" y="224" width="14" height="14" fill="#111827"/>
  <rect x="216" y="224" width="14" height="14" fill="#111827"/>
  <rect x="244" y="224" width="14" height="14" fill="#111827"/>
  <rect x="118" y="252" width="14" height="14" fill="#111827"/>
  <rect x="146" y="252" width="14" height="14" fill="#111827"/>
  <rect x="188" y="252" width="14" height="14" fill="#111827"/>
  <rect x="216" y="252" width="14" height="14" fill="#111827"/>
</svg>
